<svg viewBox="0 0 100 100" xmlns="http://www.w3.org/2000/svg">
<rect width="100" height="100" fill="#eef2f7"/>
<path d="M50,25 C75,25 80,45 80,60 C80,82 50,88 20,60 C20,45 25,25 50,25" fill="none" stroke="#2c3e50" stroke-width="1.2" stroke-linecap="round" stroke-linejoin="round"/>
<path d="M37,52 C39,51 41,51 43,52" fill="none" stroke="#2c3e50" stroke-width="1.2" stroke-linecap="round"/>
<path d="M57,52 C59,51 61,51 63,52" fill="none" stroke="#2c3e50" stroke-width="1.2" stroke-linecap="round"/>
<path d="M46,72 Q50,73 54,72" fill="none" stroke="#2c3e50" stroke-width="1" stroke-linecap="round"/>
<path d="M43,25 C41,18 38,16 38,16" fill="none" stroke="#2c3e50" stroke-width="0.8" stroke-linecap="round"/>
<path d="M47,25 C46,20 45,18 45,18" fill="none" stroke="#2c3e50" stroke-width="0.8" stroke-linecap="round"/>
<path d="M50,25 V14" fill="none" stroke="#2c3e50" stroke-width="0.8" stroke-linecap="round"/>
<path d="M53,25 C54,20 55,18 55,18" fill="none" stroke="#2c3e50" stroke-width="0.8" stroke-linecap="round"/>
<path d="M57,25 C59,18 62,16 62,16" fill="none" stroke="#2c3e50" stroke-width="0.8" stroke-linecap="round"/>
</svg>
