<svg viewBox="0 0 100 100" xmlns="http://www.w3.org/2000/svg">
<rect width="100" height="100" fill="#f9fafb"/>
<path d="M50,24 C72,24 78,42 78,56 C78,75 64,84 50,84 C36,84 22,75 22,56 C22,42 28,24 50,24" fill="none" stroke="#2d3436" stroke-width="1.2" stroke-linecap="round" stroke-linejoin="round"/>
<path d="M37,50 Q40,49 43,50" fill="none" stroke="#2d3436" stroke-width="1.2" stroke-linecap="round"/>
<path d="M57,50 Q60,49 63,50" fill="none" stroke="#2d3436" stroke-width="1.2" stroke-linecap="round"/>
<path d="M46,68 Q50,69.5 54,68" fill="none" stroke="#2d3436" stroke-width="1" stroke-linecap="round"/>
<path d="M43,24 Q41,16 38,15" fill="none" stroke="#2d3436" stroke-width="0.8" stroke-linecap="round"/>
<path d="M50,24 V12" fill="none" stroke="#2d3436" stroke-width="0.8" stroke-linecap="round"/>
<path d="M57,24 Q59,16 62,15" fill="none" stroke="#2d3436" stroke-width="0.8" stroke-linecap="round"/>
</svg>
